<svg xmlns="http://www.w3.org/2000/svg" viewBox="0 0 512 512" role="img" aria-labelledby="title desc">
  <title id="title">OctoBackup</title>
  <desc id="desc">An octopus-shaped backup control mark with a protected data vault at its center.</desc>
  <defs>
    <linearGradient id="bg" x1="72" y1="32" x2="440" y2="480" gradientUnits="userSpaceOnUse"><stop stop-color="#142B4A"/><stop offset="1" stop-color="#08182E"/></linearGradient>
    <linearGradient id="tentacle" x1="104" y1="96" x2="408" y2="424" gradientUnits="userSpaceOnUse"><stop stop-color="#53E0C0"/><stop offset="1" stop-color="#16A8A7"/></linearGradient>
  </defs>
  <rect width="512" height="512" rx="116" fill="url(#bg)"/>
  <circle cx="256" cy="244" r="150" fill="#0E2744" stroke="#244B6D" stroke-width="4"/>
  <g fill="none" stroke="url(#tentacle)" stroke-linecap="round" stroke-width="26">
    <path d="M151 167C105 137 89 102 108 77"/><path d="M194 137C168 91 175 55 207 42"/><path d="M256 126V42"/><path d="M318 137C344 91 337 55 305 42"/><path d="M361 167C407 137 423 102 404 77"/>
    <path d="M139 315C97 333 81 370 99 402"/><path d="M184 344C163 388 176 424 208 439"/><path d="M328 344C349 388 336 424 304 439"/><path d="M373 315C415 333 431 370 413 402"/>
  </g>
  <path d="M256 166 337 198v67c0 52-34 88-81 107-47-19-81-55-81-107v-67z" fill="#F7FBFC"/>
  <path d="M256 183 319 208v56c0 39-24 66-63 84-39-18-63-45-63-84v-56z" fill="#123052"/>
  <path d="m231 250 18 18 36-40" fill="none" stroke="#53E0C0" stroke-linecap="round" stroke-linejoin="round" stroke-width="15"/>
  <path d="M211 307h90" stroke="#F4C95D" stroke-linecap="round" stroke-width="12"/>
  <circle cx="256" cy="126" r="12" fill="#F4C95D"/>
</svg>
